<svg width="200" height="200" viewBox="0 0 200 200" fill="none" xmlns="http://www.w3.org/2000/svg">
<circle cx="100" cy="100" r="100" fill="#00E53D"/>
<path fill-rule="evenodd" clip-rule="evenodd" d="M99.7856 93.163C94.2754 93.163 89.7922 97.6461 89.7922 103.156C89.7922 108.667 94.2754 113.15 99.7856 113.15C105.296 113.15 109.779 108.667 109.779 103.156C109.779 97.6461 105.296 93.163 99.7856 93.163ZM116.697 76.2512C116.697 70.7318 112.223 66.2578 106.704 66.2578H92.8671C87.3477 66.2578 82.8737 70.7318 82.8737 76.2512H71.343C65.8236 76.2512 61.3496 80.7251 61.3496 86.2445V120.068C61.3496 125.588 65.8236 130.061 71.343 130.061H128.228C133.748 130.061 138.222 125.588 138.222 120.068V86.2445C138.222 80.7251 133.748 76.2512 128.228 76.2512H116.697ZM99.7856 120.837C90.0359 120.837 82.105 112.905 82.105 103.156C82.105 93.4074 90.0359 85.4758 99.7856 85.4758C109.535 85.4758 117.466 93.4074 117.466 103.156C117.466 112.905 109.535 120.837 99.7856 120.837Z" fill="white"/>
</svg>
