<svg width="47" height="48" viewBox="0 0 47 48" fill="none" xmlns="http://www.w3.org/2000/svg">
<path d="M23.498 0.124023C24.4529 0.124023 25.2274 0.897968 25.2275 1.85254C25.2275 2.80762 24.4531 3.58203 23.498 3.58203C12.4487 3.5822 3.459 12.5727 3.45898 23.6221C3.45898 34.6716 12.4488 43.6619 23.498 43.6621C34.5475 43.6621 43.5381 34.6717 43.5381 23.6221C43.5381 16.8807 40.8387 11.1132 35.3242 7.47754L35.333 18.5117C35.3336 19.4666 34.5596 20.2407 33.6035 20.2422C32.6489 20.2422 31.8746 19.4685 31.874 18.5137L31.8643 4.33203C31.8643 4.30656 31.8641 4.31841 31.8779 4.12012C31.8811 4.09525 31.8857 4.06793 31.9111 3.93359C31.9723 3.6711 32.0933 3.43464 32.29 3.19531C32.3735 3.09885 32.4613 3.01964 32.6318 2.89258C32.8534 2.74464 33.1069 2.64916 33.3604 2.61719C33.3968 2.61144 33.4264 2.60988 33.5957 2.60156C33.6428 2.60158 33.6873 2.60449 33.832 2.61816C33.8628 2.62159 33.8675 2.62245 34.042 2.66016C34.0736 2.66839 34.0994 2.67702 34.2451 2.72852C34.2756 2.7409 34.2998 2.75276 34.416 2.80957C38.1458 4.77008 41.2879 7.7019 43.5039 11.29C45.7887 14.9893 46.9961 19.2538 46.9961 23.6221C46.9961 26.7928 46.375 29.8715 45.1494 32.7695C43.9659 35.5676 42.2708 38.0808 40.1133 40.2383C37.9564 42.395 35.4437 44.0895 32.6455 45.2734C29.7478 46.4989 26.6696 47.1201 23.498 47.1201C20.327 47.1201 17.249 46.4987 14.3516 45.2734C11.5533 44.0894 9.03975 42.3952 6.88281 40.2383C4.72538 38.0808 3.03116 35.5676 1.84766 32.7695C0.621885 29.871 0 26.7922 0 23.6221C2.93554e-06 20.4519 0.621879 17.3732 1.84766 14.4746C3.0312 11.6764 4.72561 9.16361 6.88281 7.00684C9.03979 4.8494 11.5532 3.15527 14.3516 1.97168C17.25 0.745959 20.328 0.124064 23.498 0.124023ZM23.0947 11.5752C25.5828 11.5752 27.4417 12.1192 28.6592 13.2266C29.8483 14.3073 30.4591 15.7515 30.4893 17.5371C30.4895 17.5577 30.49 17.6948 30.4902 17.9189C30.4905 18.2035 30.4904 18.2036 30.4893 18.3281C30.4696 18.5609 30.3826 18.8852 30.1748 19.2129C29.8241 19.7656 29.242 20.1015 28.4209 20.1016C27.5942 20.1016 27.0252 19.7595 26.707 19.1973C26.5192 18.8653 26.454 18.5392 26.4502 18.2988V17.543C26.4502 16.5792 26.1955 15.8576 25.6943 15.3584C25.1976 14.8633 24.3663 14.6055 23.1855 14.6055C22.0047 14.6055 21.173 14.8632 20.6758 15.3584C20.1744 15.8578 19.9209 16.5687 19.9209 17.5107C19.921 18.2854 20.1562 18.9506 20.6309 19.5225C21.1357 20.1316 21.7665 20.6962 22.5244 21.2158C23.2981 21.7466 24.1403 22.2671 25.0498 22.7764C25.9838 23.3003 26.8494 23.8748 27.6455 24.499C28.4567 25.1348 29.1371 25.8567 29.6846 26.6641C30.2525 27.5024 30.5361 28.4966 30.5361 29.6377C30.536 31.4861 29.9165 32.9771 28.6807 34.0869C27.4483 35.1931 25.5674 35.7373 23.0498 35.7373C20.5317 35.7373 18.6574 35.1934 17.4395 34.0859C16.2196 32.9762 15.6095 31.4853 15.6094 29.6377C15.6094 29.6377 15.6094 28.3379 15.6094 28.3252C15.6063 28.0739 15.6643 27.7428 15.8447 27.4092C16.1583 26.8293 16.7446 26.4785 17.6123 26.4785C18.4803 26.4786 19.0648 26.8296 19.375 27.4102C19.5519 27.7414 19.6085 28.0714 19.6045 28.3223V29.7695C19.6046 30.7307 19.8714 31.449 20.3984 31.9473C20.9274 32.4473 21.7768 32.7061 22.96 32.7061C24.1425 32.706 24.9916 32.4472 25.5205 31.9473C26.0477 31.4488 26.3144 30.7303 26.3145 29.7695C26.3145 28.9959 26.0797 28.3361 25.6064 27.7764C25.1001 27.1763 24.468 26.6162 23.71 26.0967C22.9364 25.5665 22.1014 25.045 21.2061 24.5342C20.2893 24.0119 19.4317 23.4384 18.6338 22.8135C17.8223 22.1776 17.1426 21.4553 16.5957 20.6475C16.0279 19.8103 15.7451 18.8168 15.7451 17.6748C15.7451 15.805 16.3555 14.3075 17.5762 13.209C18.7942 12.1139 20.6376 11.5752 23.0947 11.5752ZM33.6152 21.6797C34.707 21.6797 35.5928 22.5645 35.5928 23.6562C35.5927 24.748 34.707 25.6328 33.6152 25.6328C32.5236 25.6327 31.6387 24.7479 31.6387 23.6562C31.6387 22.5646 32.5236 21.6798 33.6152 21.6797ZM28.7861 0C29.8778 0 30.7626 0.884913 30.7627 1.97656C30.7627 3.06833 29.8779 3.9541 28.7861 3.9541C27.6944 3.95405 26.8096 3.0683 26.8096 1.97656C26.8097 0.884942 27.6945 4.77984e-05 28.7861 0Z" fill="white"/>
</svg>
